<mxfile host="Electron" modified="2024-03-20T20:13:46.151Z" agent="Mozilla/5.0 (Macintosh; Intel Mac OS X 10_15_7) AppleWebKit/537.36 (KHTML, like Gecko) draw.io/21.6.1 Chrome/112.0.5615.204 Electron/24.6.1 Safari/537.36" etag="RO9WMRxOfojwBT48msOq" version="21.6.1" type="device">
  <diagram id="R2lEEEUBdFMjLlhIrx00" name="Page-1">
    <mxGraphModel dx="2848" dy="674" grid="1" gridSize="10" guides="1" tooltips="1" connect="1" arrows="1" fold="1" page="1" pageScale="1" pageWidth="827" pageHeight="1169" background="#ffffff" math="0" shadow="0" extFonts="Permanent Marker^https://fonts.googleapis.com/css?family=Permanent+Marker">
      <root>
        <mxCell id="0" />
        <mxCell id="1" parent="0" />
        <mxCell id="fsgZ0Ki85QxKcjYv2eqa-1" value="User" style="rounded=1;arcSize=10;whiteSpace=wrap;html=1;align=center;" parent="1" vertex="1">
          <mxGeometry x="360" y="330" width="100" height="40" as="geometry" />
        </mxCell>
        <mxCell id="fsgZ0Ki85QxKcjYv2eqa-3" value="&lt;u&gt;username&lt;/u&gt;" style="ellipse;whiteSpace=wrap;html=1;align=center;" parent="1" vertex="1">
          <mxGeometry x="650" y="280" width="100" height="40" as="geometry" />
        </mxCell>
        <mxCell id="fsgZ0Ki85QxKcjYv2eqa-4" value="firstname" style="ellipse;whiteSpace=wrap;html=1;align=center;" parent="1" vertex="1">
          <mxGeometry x="140" y="220" width="100" height="40" as="geometry" />
        </mxCell>
        <mxCell id="fsgZ0Ki85QxKcjYv2eqa-5" value="lastname" style="ellipse;whiteSpace=wrap;html=1;align=center;" parent="1" vertex="1">
          <mxGeometry x="180" y="170" width="100" height="40" as="geometry" />
        </mxCell>
        <mxCell id="fsgZ0Ki85QxKcjYv2eqa-6" value="verified" style="ellipse;whiteSpace=wrap;html=1;align=center;" parent="1" vertex="1">
          <mxGeometry x="380" y="120" width="100" height="40" as="geometry" />
        </mxCell>
        <mxCell id="fsgZ0Ki85QxKcjYv2eqa-7" value="" style="endArrow=none;html=1;rounded=0;exitX=0;exitY=0.25;exitDx=0;exitDy=0;" parent="1" source="fsgZ0Ki85QxKcjYv2eqa-1" target="fsgZ0Ki85QxKcjYv2eqa-4" edge="1">
          <mxGeometry relative="1" as="geometry">
            <mxPoint x="360" y="330" as="sourcePoint" />
            <mxPoint x="480" y="400" as="targetPoint" />
          </mxGeometry>
        </mxCell>
        <mxCell id="fsgZ0Ki85QxKcjYv2eqa-8" value="" style="endArrow=none;html=1;rounded=0;entryX=1;entryY=1;entryDx=0;entryDy=0;exitX=0.1;exitY=0;exitDx=0;exitDy=0;exitPerimeter=0;" parent="1" source="fsgZ0Ki85QxKcjYv2eqa-1" target="fsgZ0Ki85QxKcjYv2eqa-5" edge="1">
          <mxGeometry relative="1" as="geometry">
            <mxPoint x="380" y="330" as="sourcePoint" />
            <mxPoint x="420" y="210" as="targetPoint" />
          </mxGeometry>
        </mxCell>
        <mxCell id="fsgZ0Ki85QxKcjYv2eqa-9" value="" style="endArrow=none;html=1;rounded=0;entryX=0.5;entryY=1;entryDx=0;entryDy=0;exitX=0.5;exitY=0;exitDx=0;exitDy=0;" parent="1" source="fsgZ0Ki85QxKcjYv2eqa-1" target="fsgZ0Ki85QxKcjYv2eqa-6" edge="1">
          <mxGeometry relative="1" as="geometry">
            <mxPoint x="470" y="340" as="sourcePoint" />
            <mxPoint x="560" y="250" as="targetPoint" />
          </mxGeometry>
        </mxCell>
        <mxCell id="fsgZ0Ki85QxKcjYv2eqa-10" value="" style="endArrow=none;html=1;rounded=0;entryX=0;entryY=0.5;entryDx=0;entryDy=0;exitX=1;exitY=0.5;exitDx=0;exitDy=0;" parent="1" source="fsgZ0Ki85QxKcjYv2eqa-1" target="fsgZ0Ki85QxKcjYv2eqa-3" edge="1">
          <mxGeometry relative="1" as="geometry">
            <mxPoint x="450" y="350" as="sourcePoint" />
            <mxPoint x="610" y="310" as="targetPoint" />
          </mxGeometry>
        </mxCell>
        <mxCell id="fsgZ0Ki85QxKcjYv2eqa-12" value="email" style="ellipse;whiteSpace=wrap;html=1;align=center;" parent="1" vertex="1">
          <mxGeometry x="270" y="130" width="100" height="40" as="geometry" />
        </mxCell>
        <mxCell id="fsgZ0Ki85QxKcjYv2eqa-13" value="" style="endArrow=none;html=1;rounded=0;entryX=0.5;entryY=1;entryDx=0;entryDy=0;exitX=0.25;exitY=0;exitDx=0;exitDy=0;" parent="1" source="fsgZ0Ki85QxKcjYv2eqa-1" target="fsgZ0Ki85QxKcjYv2eqa-12" edge="1">
          <mxGeometry relative="1" as="geometry">
            <mxPoint x="500" y="330" as="sourcePoint" />
            <mxPoint x="540" y="210" as="targetPoint" />
          </mxGeometry>
        </mxCell>
        <mxCell id="fsgZ0Ki85QxKcjYv2eqa-14" value="created_at" style="ellipse;whiteSpace=wrap;html=1;align=center;" parent="1" vertex="1">
          <mxGeometry x="490" y="130" width="100" height="40" as="geometry" />
        </mxCell>
        <mxCell id="fsgZ0Ki85QxKcjYv2eqa-15" value="" style="endArrow=none;html=1;rounded=0;entryX=0.5;entryY=1;entryDx=0;entryDy=0;exitX=0.75;exitY=0;exitDx=0;exitDy=0;" parent="1" source="fsgZ0Ki85QxKcjYv2eqa-1" target="fsgZ0Ki85QxKcjYv2eqa-14" edge="1">
          <mxGeometry relative="1" as="geometry">
            <mxPoint x="450" y="330" as="sourcePoint" />
            <mxPoint x="520" y="160.12000000000012" as="targetPoint" />
          </mxGeometry>
        </mxCell>
        <mxCell id="fsgZ0Ki85QxKcjYv2eqa-16" value="updated_at" style="ellipse;whiteSpace=wrap;html=1;align=center;" parent="1" vertex="1">
          <mxGeometry x="590" y="160" width="100" height="40" as="geometry" />
        </mxCell>
        <mxCell id="fsgZ0Ki85QxKcjYv2eqa-17" value="" style="endArrow=none;html=1;rounded=0;entryX=0;entryY=1;entryDx=0;entryDy=0;" parent="1" target="fsgZ0Ki85QxKcjYv2eqa-16" edge="1">
          <mxGeometry relative="1" as="geometry">
            <mxPoint x="450" y="330" as="sourcePoint" />
            <mxPoint x="675" y="340" as="targetPoint" />
          </mxGeometry>
        </mxCell>
        <mxCell id="fsgZ0Ki85QxKcjYv2eqa-18" value="phone&lt;br&gt;" style="ellipse;whiteSpace=wrap;html=1;align=center;" parent="1" vertex="1">
          <mxGeometry x="630" y="210" width="100" height="40" as="geometry" />
        </mxCell>
        <mxCell id="fsgZ0Ki85QxKcjYv2eqa-19" value="" style="endArrow=none;html=1;rounded=0;exitX=1;exitY=0.25;exitDx=0;exitDy=0;" parent="1" source="fsgZ0Ki85QxKcjYv2eqa-1" target="fsgZ0Ki85QxKcjYv2eqa-18" edge="1">
          <mxGeometry relative="1" as="geometry">
            <mxPoint x="460" y="350" as="sourcePoint" />
            <mxPoint x="570" y="470" as="targetPoint" />
          </mxGeometry>
        </mxCell>
        <mxCell id="fsgZ0Ki85QxKcjYv2eqa-21" value="Business" style="rounded=1;arcSize=10;whiteSpace=wrap;html=1;align=center;" parent="1" vertex="1">
          <mxGeometry x="-170" y="330" width="100" height="40" as="geometry" />
        </mxCell>
        <mxCell id="fsgZ0Ki85QxKcjYv2eqa-22" value="&lt;u&gt;business_id&lt;/u&gt;" style="ellipse;whiteSpace=wrap;html=1;align=center;" parent="1" vertex="1">
          <mxGeometry x="-350" y="270" width="100" height="40" as="geometry" />
        </mxCell>
        <mxCell id="fsgZ0Ki85QxKcjYv2eqa-23" value="" style="endArrow=none;html=1;rounded=0;entryX=1;entryY=1;entryDx=0;entryDy=0;exitX=0;exitY=0.5;exitDx=0;exitDy=0;" parent="1" source="fsgZ0Ki85QxKcjYv2eqa-21" target="fsgZ0Ki85QxKcjYv2eqa-22" edge="1">
          <mxGeometry relative="1" as="geometry">
            <mxPoint x="-170" y="350" as="sourcePoint" />
            <mxPoint x="80" y="297" as="targetPoint" />
          </mxGeometry>
        </mxCell>
        <mxCell id="fsgZ0Ki85QxKcjYv2eqa-24" value="tax_number" style="ellipse;whiteSpace=wrap;html=1;align=center;" parent="1" vertex="1">
          <mxGeometry x="-10" y="225" width="100" height="40" as="geometry" />
        </mxCell>
        <mxCell id="fsgZ0Ki85QxKcjYv2eqa-25" value="" style="endArrow=none;html=1;rounded=0;entryX=0;entryY=1;entryDx=0;entryDy=0;exitX=1;exitY=0;exitDx=0;exitDy=0;" parent="1" source="fsgZ0Ki85QxKcjYv2eqa-21" target="fsgZ0Ki85QxKcjYv2eqa-24" edge="1">
          <mxGeometry relative="1" as="geometry">
            <mxPoint x="210" y="350" as="sourcePoint" />
            <mxPoint x="-270" y="400" as="targetPoint" />
          </mxGeometry>
        </mxCell>
        <mxCell id="fsgZ0Ki85QxKcjYv2eqa-27" value="phone_number" style="ellipse;whiteSpace=wrap;html=1;align=center;" parent="1" vertex="1">
          <mxGeometry x="-210" y="185" width="100" height="40" as="geometry" />
        </mxCell>
        <mxCell id="fsgZ0Ki85QxKcjYv2eqa-28" value="" style="endArrow=none;html=1;rounded=0;entryX=0.5;entryY=1;entryDx=0;entryDy=0;exitX=0.5;exitY=0;exitDx=0;exitDy=0;" parent="1" source="fsgZ0Ki85QxKcjYv2eqa-21" target="fsgZ0Ki85QxKcjYv2eqa-27" edge="1">
          <mxGeometry relative="1" as="geometry">
            <mxPoint x="-140" y="330" as="sourcePoint" />
            <mxPoint x="-144" y="230" as="targetPoint" />
          </mxGeometry>
        </mxCell>
        <mxCell id="fsgZ0Ki85QxKcjYv2eqa-29" value="founding_date" style="ellipse;whiteSpace=wrap;html=1;align=center;" parent="1" vertex="1">
          <mxGeometry x="-100" y="180" width="100" height="40" as="geometry" />
        </mxCell>
        <mxCell id="fsgZ0Ki85QxKcjYv2eqa-30" value="" style="endArrow=none;html=1;rounded=0;entryX=0.5;entryY=1;entryDx=0;entryDy=0;exitX=0.75;exitY=0;exitDx=0;exitDy=0;" parent="1" source="fsgZ0Ki85QxKcjYv2eqa-21" target="fsgZ0Ki85QxKcjYv2eqa-29" edge="1">
          <mxGeometry relative="1" as="geometry">
            <mxPoint x="-83" y="302" as="sourcePoint" />
            <mxPoint x="40" y="240" as="targetPoint" />
          </mxGeometry>
        </mxCell>
        <mxCell id="fsgZ0Ki85QxKcjYv2eqa-31" value="name" style="ellipse;whiteSpace=wrap;html=1;align=center;" parent="1" vertex="1">
          <mxGeometry x="-310" y="215" width="100" height="40" as="geometry" />
        </mxCell>
        <mxCell id="fsgZ0Ki85QxKcjYv2eqa-32" value="" style="endArrow=none;html=1;rounded=0;entryX=1;entryY=1;entryDx=0;entryDy=0;exitX=0.053;exitY=-0.013;exitDx=0;exitDy=0;exitPerimeter=0;" parent="1" source="fsgZ0Ki85QxKcjYv2eqa-21" target="fsgZ0Ki85QxKcjYv2eqa-31" edge="1">
          <mxGeometry relative="1" as="geometry">
            <mxPoint x="-170" y="330" as="sourcePoint" />
            <mxPoint x="-284" y="250" as="targetPoint" />
          </mxGeometry>
        </mxCell>
        <mxCell id="fsgZ0Ki85QxKcjYv2eqa-35" value="Business_Type" style="rounded=1;arcSize=10;whiteSpace=wrap;html=1;align=center;" parent="1" vertex="1">
          <mxGeometry x="-170" y="550" width="100" height="40" as="geometry" />
        </mxCell>
        <mxCell id="fsgZ0Ki85QxKcjYv2eqa-36" value="&lt;u&gt;type_id&lt;/u&gt;" style="ellipse;whiteSpace=wrap;html=1;align=center;" parent="1" vertex="1">
          <mxGeometry x="-300" y="550" width="100" height="40" as="geometry" />
        </mxCell>
        <mxCell id="fsgZ0Ki85QxKcjYv2eqa-37" value="" style="endArrow=none;html=1;rounded=0;entryX=1;entryY=0.5;entryDx=0;entryDy=0;exitX=0;exitY=0.5;exitDx=0;exitDy=0;" parent="1" source="fsgZ0Ki85QxKcjYv2eqa-35" target="fsgZ0Ki85QxKcjYv2eqa-36" edge="1">
          <mxGeometry relative="1" as="geometry">
            <mxPoint x="-170" y="570" as="sourcePoint" />
            <mxPoint x="80" y="517" as="targetPoint" />
          </mxGeometry>
        </mxCell>
        <mxCell id="fsgZ0Ki85QxKcjYv2eqa-40" value="description" style="ellipse;whiteSpace=wrap;html=1;align=center;" parent="1" vertex="1">
          <mxGeometry x="-40" y="550" width="100" height="40" as="geometry" />
        </mxCell>
        <mxCell id="fsgZ0Ki85QxKcjYv2eqa-41" value="" style="endArrow=none;html=1;rounded=0;entryX=0;entryY=0.5;entryDx=0;entryDy=0;exitX=1;exitY=0.5;exitDx=0;exitDy=0;" parent="1" source="fsgZ0Ki85QxKcjYv2eqa-35" target="fsgZ0Ki85QxKcjYv2eqa-40" edge="1">
          <mxGeometry relative="1" as="geometry">
            <mxPoint x="-140" y="550" as="sourcePoint" />
            <mxPoint x="-144" y="450" as="targetPoint" />
          </mxGeometry>
        </mxCell>
        <mxCell id="fsgZ0Ki85QxKcjYv2eqa-44" value="name" style="ellipse;whiteSpace=wrap;html=1;align=center;" parent="1" vertex="1">
          <mxGeometry x="-170" y="670" width="100" height="40" as="geometry" />
        </mxCell>
        <mxCell id="fsgZ0Ki85QxKcjYv2eqa-45" value="" style="endArrow=none;html=1;rounded=0;exitX=0.5;exitY=1;exitDx=0;exitDy=0;entryX=0.5;entryY=0;entryDx=0;entryDy=0;" parent="1" source="fsgZ0Ki85QxKcjYv2eqa-35" target="fsgZ0Ki85QxKcjYv2eqa-44" edge="1">
          <mxGeometry relative="1" as="geometry">
            <mxPoint x="-120" y="590" as="sourcePoint" />
            <mxPoint x="-114" y="630" as="targetPoint" />
          </mxGeometry>
        </mxCell>
        <mxCell id="fsgZ0Ki85QxKcjYv2eqa-46" value="Has_Type" style="shape=rhombus;perimeter=rhombusPerimeter;whiteSpace=wrap;html=1;align=center;" parent="1" vertex="1">
          <mxGeometry x="-180" y="430" width="120" height="60" as="geometry" />
        </mxCell>
        <mxCell id="fsgZ0Ki85QxKcjYv2eqa-47" value="" style="endArrow=none;html=1;rounded=0;entryX=0.5;entryY=1;entryDx=0;entryDy=0;exitX=0.5;exitY=0;exitDx=0;exitDy=0;" parent="1" source="fsgZ0Ki85QxKcjYv2eqa-35" target="fsgZ0Ki85QxKcjYv2eqa-46" edge="1">
          <mxGeometry width="50" height="50" relative="1" as="geometry">
            <mxPoint x="-104" y="540" as="sourcePoint" />
            <mxPoint x="-54" y="490" as="targetPoint" />
          </mxGeometry>
        </mxCell>
        <mxCell id="fsgZ0Ki85QxKcjYv2eqa-49" value="" style="endArrow=none;html=1;rounded=0;entryX=0.5;entryY=1;entryDx=0;entryDy=0;exitX=0.5;exitY=0;exitDx=0;exitDy=0;" parent="1" source="fsgZ0Ki85QxKcjYv2eqa-46" target="fsgZ0Ki85QxKcjYv2eqa-21" edge="1">
          <mxGeometry width="50" height="50" relative="1" as="geometry">
            <mxPoint x="-120.5" y="430" as="sourcePoint" />
            <mxPoint x="-120.5" y="370" as="targetPoint" />
          </mxGeometry>
        </mxCell>
        <mxCell id="fsgZ0Ki85QxKcjYv2eqa-51" value="Owns" style="shape=rhombus;perimeter=rhombusPerimeter;whiteSpace=wrap;html=1;align=center;" parent="1" vertex="1">
          <mxGeometry x="90" y="320" width="120" height="60" as="geometry" />
        </mxCell>
        <mxCell id="fsgZ0Ki85QxKcjYv2eqa-52" value="" style="endArrow=none;html=1;rounded=0;entryX=0;entryY=0.5;entryDx=0;entryDy=0;exitX=1;exitY=0.5;exitDx=0;exitDy=0;" parent="1" source="fsgZ0Ki85QxKcjYv2eqa-51" target="fsgZ0Ki85QxKcjYv2eqa-1" edge="1">
          <mxGeometry relative="1" as="geometry">
            <mxPoint x="210" y="350" as="sourcePoint" />
            <mxPoint x="320" y="350" as="targetPoint" />
          </mxGeometry>
        </mxCell>
        <mxCell id="fsgZ0Ki85QxKcjYv2eqa-53" value="" style="endArrow=none;html=1;rounded=0;entryX=0;entryY=0.5;entryDx=0;entryDy=0;exitX=1;exitY=0.5;exitDx=0;exitDy=0;" parent="1" source="fsgZ0Ki85QxKcjYv2eqa-21" target="fsgZ0Ki85QxKcjYv2eqa-51" edge="1">
          <mxGeometry relative="1" as="geometry">
            <mxPoint x="-40" y="350" as="sourcePoint" />
            <mxPoint x="80" y="350" as="targetPoint" />
          </mxGeometry>
        </mxCell>
        <mxCell id="fsgZ0Ki85QxKcjYv2eqa-55" value="Role" style="rounded=1;arcSize=10;whiteSpace=wrap;html=1;align=center;" parent="1" vertex="1">
          <mxGeometry x="360" y="550" width="100" height="40" as="geometry" />
        </mxCell>
        <mxCell id="fsgZ0Ki85QxKcjYv2eqa-56" value="&lt;u&gt;role_id&lt;/u&gt;" style="ellipse;whiteSpace=wrap;html=1;align=center;" parent="1" vertex="1">
          <mxGeometry x="230" y="550" width="100" height="40" as="geometry" />
        </mxCell>
        <mxCell id="fsgZ0Ki85QxKcjYv2eqa-57" value="" style="endArrow=none;html=1;rounded=0;entryX=1;entryY=0.5;entryDx=0;entryDy=0;exitX=0;exitY=0.5;exitDx=0;exitDy=0;" parent="1" source="fsgZ0Ki85QxKcjYv2eqa-55" target="fsgZ0Ki85QxKcjYv2eqa-56" edge="1">
          <mxGeometry relative="1" as="geometry">
            <mxPoint x="360" y="570" as="sourcePoint" />
            <mxPoint x="610" y="517" as="targetPoint" />
          </mxGeometry>
        </mxCell>
        <mxCell id="fsgZ0Ki85QxKcjYv2eqa-58" value="description" style="ellipse;whiteSpace=wrap;html=1;align=center;" parent="1" vertex="1">
          <mxGeometry x="490" y="550" width="100" height="40" as="geometry" />
        </mxCell>
        <mxCell id="fsgZ0Ki85QxKcjYv2eqa-59" value="" style="endArrow=none;html=1;rounded=0;entryX=0;entryY=0.5;entryDx=0;entryDy=0;" parent="1" source="fsgZ0Ki85QxKcjYv2eqa-55" target="fsgZ0Ki85QxKcjYv2eqa-58" edge="1">
          <mxGeometry relative="1" as="geometry">
            <mxPoint x="390" y="550" as="sourcePoint" />
            <mxPoint x="386" y="450" as="targetPoint" />
          </mxGeometry>
        </mxCell>
        <mxCell id="fsgZ0Ki85QxKcjYv2eqa-60" value="name" style="ellipse;whiteSpace=wrap;html=1;align=center;" parent="1" vertex="1">
          <mxGeometry x="360" y="670" width="100" height="40" as="geometry" />
        </mxCell>
        <mxCell id="fsgZ0Ki85QxKcjYv2eqa-61" value="" style="endArrow=none;html=1;rounded=0;exitX=0.5;exitY=1;exitDx=0;exitDy=0;entryX=0.5;entryY=0;entryDx=0;entryDy=0;" parent="1" source="fsgZ0Ki85QxKcjYv2eqa-55" target="fsgZ0Ki85QxKcjYv2eqa-60" edge="1">
          <mxGeometry relative="1" as="geometry">
            <mxPoint x="410" y="590" as="sourcePoint" />
            <mxPoint x="416" y="630" as="targetPoint" />
          </mxGeometry>
        </mxCell>
        <mxCell id="fsgZ0Ki85QxKcjYv2eqa-63" value="Has_Role" style="shape=rhombus;perimeter=rhombusPerimeter;whiteSpace=wrap;html=1;align=center;" parent="1" vertex="1">
          <mxGeometry x="350" y="430" width="120" height="60" as="geometry" />
        </mxCell>
        <mxCell id="fsgZ0Ki85QxKcjYv2eqa-64" value="" style="endArrow=none;html=1;rounded=0;entryX=0.5;entryY=0;entryDx=0;entryDy=0;" parent="1" target="fsgZ0Ki85QxKcjYv2eqa-63" edge="1">
          <mxGeometry relative="1" as="geometry">
            <mxPoint x="410" y="370" as="sourcePoint" />
            <mxPoint x="410" y="430" as="targetPoint" />
          </mxGeometry>
        </mxCell>
        <mxCell id="fsgZ0Ki85QxKcjYv2eqa-65" value="" style="endArrow=none;html=1;rounded=0;entryX=0.5;entryY=0;entryDx=0;entryDy=0;" parent="1" target="fsgZ0Ki85QxKcjYv2eqa-55" edge="1">
          <mxGeometry relative="1" as="geometry">
            <mxPoint x="410" y="490" as="sourcePoint" />
            <mxPoint x="420" y="440" as="targetPoint" />
          </mxGeometry>
        </mxCell>
        <mxCell id="fsgZ0Ki85QxKcjYv2eqa-89" value="Product" style="rounded=1;arcSize=10;whiteSpace=wrap;html=1;align=center;" parent="1" vertex="1">
          <mxGeometry x="-820" y="292.5" width="100" height="40" as="geometry" />
        </mxCell>
        <mxCell id="fsgZ0Ki85QxKcjYv2eqa-90" value="&lt;u&gt;product_id&lt;/u&gt;" style="ellipse;whiteSpace=wrap;html=1;align=center;" parent="1" vertex="1">
          <mxGeometry x="-1010" y="292.5" width="100" height="40" as="geometry" />
        </mxCell>
        <mxCell id="fsgZ0Ki85QxKcjYv2eqa-91" value="" style="endArrow=none;html=1;rounded=0;entryX=1;entryY=0.5;entryDx=0;entryDy=0;exitX=0;exitY=0.5;exitDx=0;exitDy=0;" parent="1" source="fsgZ0Ki85QxKcjYv2eqa-89" target="fsgZ0Ki85QxKcjYv2eqa-90" edge="1">
          <mxGeometry relative="1" as="geometry">
            <mxPoint x="-820" y="312.5" as="sourcePoint" />
            <mxPoint x="-570" y="259.5" as="targetPoint" />
          </mxGeometry>
        </mxCell>
        <mxCell id="fsgZ0Ki85QxKcjYv2eqa-92" value="price" style="ellipse;whiteSpace=wrap;html=1;align=center;" parent="1" vertex="1">
          <mxGeometry x="-590" y="232.5" width="100" height="40" as="geometry" />
        </mxCell>
        <mxCell id="fsgZ0Ki85QxKcjYv2eqa-93" value="" style="endArrow=none;html=1;rounded=0;exitX=1;exitY=0.25;exitDx=0;exitDy=0;" parent="1" source="fsgZ0Ki85QxKcjYv2eqa-89" target="fsgZ0Ki85QxKcjYv2eqa-92" edge="1">
          <mxGeometry relative="1" as="geometry">
            <mxPoint x="-790" y="292.5" as="sourcePoint" />
            <mxPoint x="-794" y="192.5" as="targetPoint" />
          </mxGeometry>
        </mxCell>
        <mxCell id="fsgZ0Ki85QxKcjYv2eqa-94" value="name" style="ellipse;whiteSpace=wrap;html=1;align=center;" parent="1" vertex="1">
          <mxGeometry x="-1000" y="342.5" width="100" height="40" as="geometry" />
        </mxCell>
        <mxCell id="fsgZ0Ki85QxKcjYv2eqa-95" value="" style="endArrow=none;html=1;rounded=0;exitX=0;exitY=0.75;exitDx=0;exitDy=0;entryX=1;entryY=0;entryDx=0;entryDy=0;" parent="1" source="fsgZ0Ki85QxKcjYv2eqa-89" target="fsgZ0Ki85QxKcjYv2eqa-94" edge="1">
          <mxGeometry relative="1" as="geometry">
            <mxPoint x="-770" y="332.5" as="sourcePoint" />
            <mxPoint x="-764" y="372.5" as="targetPoint" />
          </mxGeometry>
        </mxCell>
        <mxCell id="fsgZ0Ki85QxKcjYv2eqa-96" value="category" style="ellipse;whiteSpace=wrap;html=1;align=center;" parent="1" vertex="1">
          <mxGeometry x="-970" y="392.5" width="100" height="40" as="geometry" />
        </mxCell>
        <mxCell id="fsgZ0Ki85QxKcjYv2eqa-97" value="" style="endArrow=none;html=1;rounded=0;exitX=0.25;exitY=1;exitDx=0;exitDy=0;entryX=1;entryY=0;entryDx=0;entryDy=0;" parent="1" source="fsgZ0Ki85QxKcjYv2eqa-89" target="fsgZ0Ki85QxKcjYv2eqa-96" edge="1">
          <mxGeometry relative="1" as="geometry">
            <mxPoint x="-702" y="332.5" as="sourcePoint" />
            <mxPoint x="-654" y="372.5" as="targetPoint" />
          </mxGeometry>
        </mxCell>
        <mxCell id="fsgZ0Ki85QxKcjYv2eqa-98" value="cost" style="ellipse;whiteSpace=wrap;html=1;align=center;" parent="1" vertex="1">
          <mxGeometry x="-680" y="192.5" width="100" height="40" as="geometry" />
        </mxCell>
        <mxCell id="fsgZ0Ki85QxKcjYv2eqa-99" value="" style="endArrow=none;html=1;rounded=0;" parent="1" source="fsgZ0Ki85QxKcjYv2eqa-89" target="fsgZ0Ki85QxKcjYv2eqa-98" edge="1">
          <mxGeometry relative="1" as="geometry">
            <mxPoint x="-650" y="322.5" as="sourcePoint" />
            <mxPoint x="-674" y="182.5" as="targetPoint" />
          </mxGeometry>
        </mxCell>
        <mxCell id="fsgZ0Ki85QxKcjYv2eqa-100" value="unit" style="ellipse;whiteSpace=wrap;html=1;align=center;" parent="1" vertex="1">
          <mxGeometry x="-790" y="182.5" width="100" height="40" as="geometry" />
        </mxCell>
        <mxCell id="fsgZ0Ki85QxKcjYv2eqa-101" value="" style="endArrow=none;html=1;rounded=0;exitX=0.5;exitY=0;exitDx=0;exitDy=0;" parent="1" source="fsgZ0Ki85QxKcjYv2eqa-89" target="fsgZ0Ki85QxKcjYv2eqa-100" edge="1">
          <mxGeometry relative="1" as="geometry">
            <mxPoint x="-660" y="292.5" as="sourcePoint" />
            <mxPoint x="-589" y="142.5" as="targetPoint" />
          </mxGeometry>
        </mxCell>
        <mxCell id="fsgZ0Ki85QxKcjYv2eqa-102" value="created_at" style="ellipse;whiteSpace=wrap;html=1;align=center;" parent="1" vertex="1">
          <mxGeometry x="-900" y="192.5" width="100" height="40" as="geometry" />
        </mxCell>
        <mxCell id="fsgZ0Ki85QxKcjYv2eqa-103" value="" style="endArrow=none;html=1;rounded=0;exitX=0.25;exitY=0;exitDx=0;exitDy=0;" parent="1" source="fsgZ0Ki85QxKcjYv2eqa-89" target="fsgZ0Ki85QxKcjYv2eqa-102" edge="1">
          <mxGeometry relative="1" as="geometry">
            <mxPoint x="-630" y="242.5" as="sourcePoint" />
            <mxPoint x="-559" y="92.5" as="targetPoint" />
          </mxGeometry>
        </mxCell>
        <mxCell id="fsgZ0Ki85QxKcjYv2eqa-104" value="updated_at" style="ellipse;whiteSpace=wrap;html=1;align=center;" parent="1" vertex="1">
          <mxGeometry x="-980" y="242.5" width="100" height="40" as="geometry" />
        </mxCell>
        <mxCell id="fsgZ0Ki85QxKcjYv2eqa-105" value="" style="endArrow=none;html=1;rounded=0;exitX=0;exitY=0.25;exitDx=0;exitDy=0;" parent="1" source="fsgZ0Ki85QxKcjYv2eqa-89" target="fsgZ0Ki85QxKcjYv2eqa-104" edge="1">
          <mxGeometry relative="1" as="geometry">
            <mxPoint x="-720" y="312.5" as="sourcePoint" />
            <mxPoint x="-554" y="42.5" as="targetPoint" />
          </mxGeometry>
        </mxCell>
        <mxCell id="fsgZ0Ki85QxKcjYv2eqa-106" value="Manufactures" style="shape=rhombus;perimeter=rhombusPerimeter;whiteSpace=wrap;html=1;align=center;" parent="1" vertex="1">
          <mxGeometry x="-500" y="420" width="120" height="60" as="geometry" />
        </mxCell>
        <mxCell id="fsgZ0Ki85QxKcjYv2eqa-107" value="" style="endArrow=none;html=1;rounded=0;exitX=1;exitY=0.75;exitDx=0;exitDy=0;entryX=0;entryY=0;entryDx=0;entryDy=0;" parent="1" source="fsgZ0Ki85QxKcjYv2eqa-89" target="fsgZ0Ki85QxKcjYv2eqa-106" edge="1">
          <mxGeometry relative="1" as="geometry">
            <mxPoint x="-855" y="335" as="sourcePoint" />
            <mxPoint x="-945" y="401" as="targetPoint" />
          </mxGeometry>
        </mxCell>
        <mxCell id="fsgZ0Ki85QxKcjYv2eqa-108" value="" style="endArrow=none;html=1;rounded=0;exitX=0;exitY=0.75;exitDx=0;exitDy=0;entryX=1;entryY=0;entryDx=0;entryDy=0;" parent="1" source="fsgZ0Ki85QxKcjYv2eqa-21" target="fsgZ0Ki85QxKcjYv2eqa-106" edge="1">
          <mxGeometry relative="1" as="geometry">
            <mxPoint x="-780" y="325" as="sourcePoint" />
            <mxPoint x="-540" y="395" as="targetPoint" />
          </mxGeometry>
        </mxCell>
        <mxCell id="fsgZ0Ki85QxKcjYv2eqa-109" value="Is_Made_Up_With" style="shape=rhombus;perimeter=rhombusPerimeter;whiteSpace=wrap;html=1;align=center;" parent="1" vertex="1">
          <mxGeometry x="-830" y="520" width="120" height="60" as="geometry" />
        </mxCell>
        <mxCell id="fsgZ0Ki85QxKcjYv2eqa-110" value="" style="endArrow=none;html=1;rounded=0;exitX=0.5;exitY=1;exitDx=0;exitDy=0;entryX=0.5;entryY=0;entryDx=0;entryDy=0;" parent="1" source="fsgZ0Ki85QxKcjYv2eqa-89" target="fsgZ0Ki85QxKcjYv2eqa-109" edge="1">
          <mxGeometry relative="1" as="geometry">
            <mxPoint x="-710" y="333" as="sourcePoint" />
            <mxPoint x="-460" y="445" as="targetPoint" />
          </mxGeometry>
        </mxCell>
        <mxCell id="fsgZ0Ki85QxKcjYv2eqa-111" value="" style="endArrow=none;html=1;rounded=0;exitX=0.5;exitY=1;exitDx=0;exitDy=0;" parent="1" source="fsgZ0Ki85QxKcjYv2eqa-109" target="fsgZ0Ki85QxKcjYv2eqa-132" edge="1">
          <mxGeometry relative="1" as="geometry">
            <mxPoint x="-770.48" y="480" as="sourcePoint" />
            <mxPoint x="-770" y="590" as="targetPoint" />
          </mxGeometry>
        </mxCell>
        <mxCell id="fsgZ0Ki85QxKcjYv2eqa-132" value="Recipe" style="rounded=1;arcSize=10;whiteSpace=wrap;html=1;align=center;" parent="1" vertex="1">
          <mxGeometry x="-820" y="760" width="100" height="40" as="geometry" />
        </mxCell>
        <mxCell id="fsgZ0Ki85QxKcjYv2eqa-133" value="&lt;u&gt;recipe_id&lt;/u&gt;" style="ellipse;whiteSpace=wrap;html=1;align=center;" parent="1" vertex="1">
          <mxGeometry x="-1030" y="760" width="100" height="40" as="geometry" />
        </mxCell>
        <mxCell id="fsgZ0Ki85QxKcjYv2eqa-134" value="" style="endArrow=none;html=1;rounded=0;entryX=1;entryY=0.5;entryDx=0;entryDy=0;exitX=0;exitY=0.5;exitDx=0;exitDy=0;" parent="1" source="fsgZ0Ki85QxKcjYv2eqa-132" target="fsgZ0Ki85QxKcjYv2eqa-133" edge="1">
          <mxGeometry relative="1" as="geometry">
            <mxPoint x="-820" y="780" as="sourcePoint" />
            <mxPoint x="-570" y="727" as="targetPoint" />
          </mxGeometry>
        </mxCell>
        <mxCell id="fsgZ0Ki85QxKcjYv2eqa-135" value="instructions" style="ellipse;whiteSpace=wrap;html=1;align=center;" parent="1" vertex="1">
          <mxGeometry x="-820" y="880" width="100" height="40" as="geometry" />
        </mxCell>
        <mxCell id="fsgZ0Ki85QxKcjYv2eqa-136" value="" style="endArrow=none;html=1;rounded=0;exitX=0.5;exitY=1;exitDx=0;exitDy=0;" parent="1" source="fsgZ0Ki85QxKcjYv2eqa-132" target="fsgZ0Ki85QxKcjYv2eqa-135" edge="1">
          <mxGeometry relative="1" as="geometry">
            <mxPoint x="-790" y="760" as="sourcePoint" />
            <mxPoint x="-794" y="660" as="targetPoint" />
          </mxGeometry>
        </mxCell>
        <mxCell id="fsgZ0Ki85QxKcjYv2eqa-137" value="name" style="ellipse;whiteSpace=wrap;html=1;align=center;" parent="1" vertex="1">
          <mxGeometry x="-1000" y="810" width="100" height="40" as="geometry" />
        </mxCell>
        <mxCell id="fsgZ0Ki85QxKcjYv2eqa-138" value="" style="endArrow=none;html=1;rounded=0;exitX=0;exitY=0.75;exitDx=0;exitDy=0;entryX=1;entryY=0;entryDx=0;entryDy=0;" parent="1" source="fsgZ0Ki85QxKcjYv2eqa-132" target="fsgZ0Ki85QxKcjYv2eqa-137" edge="1">
          <mxGeometry relative="1" as="geometry">
            <mxPoint x="-770" y="800" as="sourcePoint" />
            <mxPoint x="-764" y="840" as="targetPoint" />
          </mxGeometry>
        </mxCell>
        <mxCell id="fsgZ0Ki85QxKcjYv2eqa-139" value="description" style="ellipse;whiteSpace=wrap;html=1;align=center;" parent="1" vertex="1">
          <mxGeometry x="-940" y="860" width="100" height="40" as="geometry" />
        </mxCell>
        <mxCell id="fsgZ0Ki85QxKcjYv2eqa-140" value="" style="endArrow=none;html=1;rounded=0;exitX=0.25;exitY=1;exitDx=0;exitDy=0;entryX=1;entryY=0;entryDx=0;entryDy=0;" parent="1" source="fsgZ0Ki85QxKcjYv2eqa-132" target="fsgZ0Ki85QxKcjYv2eqa-139" edge="1">
          <mxGeometry relative="1" as="geometry">
            <mxPoint x="-702" y="800" as="sourcePoint" />
            <mxPoint x="-654" y="840" as="targetPoint" />
          </mxGeometry>
        </mxCell>
        <mxCell id="fsgZ0Ki85QxKcjYv2eqa-141" value="yield_quantity" style="ellipse;whiteSpace=wrap;html=1;align=center;" parent="1" vertex="1">
          <mxGeometry x="-710" y="860" width="100" height="40" as="geometry" />
        </mxCell>
        <mxCell id="fsgZ0Ki85QxKcjYv2eqa-142" value="" style="endArrow=none;html=1;rounded=0;exitX=0.75;exitY=1;exitDx=0;exitDy=0;" parent="1" source="fsgZ0Ki85QxKcjYv2eqa-132" target="fsgZ0Ki85QxKcjYv2eqa-141" edge="1">
          <mxGeometry relative="1" as="geometry">
            <mxPoint x="-650" y="790" as="sourcePoint" />
            <mxPoint x="-674" y="650" as="targetPoint" />
          </mxGeometry>
        </mxCell>
        <mxCell id="fsgZ0Ki85QxKcjYv2eqa-143" value="created_at" style="ellipse;whiteSpace=wrap;html=1;align=center;" parent="1" vertex="1">
          <mxGeometry x="-640" y="812.5" width="100" height="40" as="geometry" />
        </mxCell>
        <mxCell id="fsgZ0Ki85QxKcjYv2eqa-144" value="" style="endArrow=none;html=1;rounded=0;exitX=1;exitY=1;exitDx=0;exitDy=0;" parent="1" source="fsgZ0Ki85QxKcjYv2eqa-132" target="fsgZ0Ki85QxKcjYv2eqa-143" edge="1">
          <mxGeometry relative="1" as="geometry">
            <mxPoint x="-630" y="710" as="sourcePoint" />
            <mxPoint x="-559" y="560" as="targetPoint" />
          </mxGeometry>
        </mxCell>
        <mxCell id="fsgZ0Ki85QxKcjYv2eqa-145" value="updated_at" style="ellipse;whiteSpace=wrap;html=1;align=center;" parent="1" vertex="1">
          <mxGeometry x="-610" y="760" width="100" height="40" as="geometry" />
        </mxCell>
        <mxCell id="fsgZ0Ki85QxKcjYv2eqa-146" value="" style="endArrow=none;html=1;rounded=0;exitX=1;exitY=0.5;exitDx=0;exitDy=0;" parent="1" source="fsgZ0Ki85QxKcjYv2eqa-132" target="fsgZ0Ki85QxKcjYv2eqa-145" edge="1">
          <mxGeometry relative="1" as="geometry">
            <mxPoint x="-720" y="780" as="sourcePoint" />
            <mxPoint x="-554" y="510" as="targetPoint" />
          </mxGeometry>
        </mxCell>
        <mxCell id="fsgZ0Ki85QxKcjYv2eqa-67" value="Raw_Material" style="rounded=1;arcSize=10;whiteSpace=wrap;html=1;align=center;" parent="1" vertex="1">
          <mxGeometry x="-1380" y="480" width="100" height="40" as="geometry" />
        </mxCell>
        <mxCell id="fsgZ0Ki85QxKcjYv2eqa-68" value="&lt;u&gt;material_id&lt;/u&gt;" style="ellipse;whiteSpace=wrap;html=1;align=center;" parent="1" vertex="1">
          <mxGeometry x="-1570" y="460" width="100" height="40" as="geometry" />
        </mxCell>
        <mxCell id="fsgZ0Ki85QxKcjYv2eqa-69" value="" style="endArrow=none;html=1;rounded=0;entryX=1;entryY=0.5;entryDx=0;entryDy=0;exitX=0;exitY=0.5;exitDx=0;exitDy=0;" parent="1" source="fsgZ0Ki85QxKcjYv2eqa-67" target="fsgZ0Ki85QxKcjYv2eqa-68" edge="1">
          <mxGeometry relative="1" as="geometry">
            <mxPoint x="-1380" y="500" as="sourcePoint" />
            <mxPoint x="-1130" y="447" as="targetPoint" />
          </mxGeometry>
        </mxCell>
        <mxCell id="fsgZ0Ki85QxKcjYv2eqa-70" value="price" style="ellipse;whiteSpace=wrap;html=1;align=center;" parent="1" vertex="1">
          <mxGeometry x="-1440" y="610" width="100" height="40" as="geometry" />
        </mxCell>
        <mxCell id="fsgZ0Ki85QxKcjYv2eqa-71" value="" style="endArrow=none;html=1;rounded=0;exitX=0.5;exitY=1;exitDx=0;exitDy=0;" parent="1" source="fsgZ0Ki85QxKcjYv2eqa-67" target="fsgZ0Ki85QxKcjYv2eqa-70" edge="1">
          <mxGeometry relative="1" as="geometry">
            <mxPoint x="-1350" y="480" as="sourcePoint" />
            <mxPoint x="-1354" y="380" as="targetPoint" />
          </mxGeometry>
        </mxCell>
        <mxCell id="fsgZ0Ki85QxKcjYv2eqa-72" value="name" style="ellipse;whiteSpace=wrap;html=1;align=center;" parent="1" vertex="1">
          <mxGeometry x="-1570" y="520" width="100" height="40" as="geometry" />
        </mxCell>
        <mxCell id="fsgZ0Ki85QxKcjYv2eqa-73" value="" style="endArrow=none;html=1;rounded=0;exitX=0;exitY=0.75;exitDx=0;exitDy=0;entryX=1;entryY=0;entryDx=0;entryDy=0;" parent="1" source="fsgZ0Ki85QxKcjYv2eqa-67" target="fsgZ0Ki85QxKcjYv2eqa-72" edge="1">
          <mxGeometry relative="1" as="geometry">
            <mxPoint x="-1330" y="520" as="sourcePoint" />
            <mxPoint x="-1324" y="560" as="targetPoint" />
          </mxGeometry>
        </mxCell>
        <mxCell id="fsgZ0Ki85QxKcjYv2eqa-75" value="brand" style="ellipse;whiteSpace=wrap;html=1;align=center;" parent="1" vertex="1">
          <mxGeometry x="-1540" y="580" width="100" height="40" as="geometry" />
        </mxCell>
        <mxCell id="fsgZ0Ki85QxKcjYv2eqa-76" value="" style="endArrow=none;html=1;rounded=0;exitX=0.25;exitY=1;exitDx=0;exitDy=0;entryX=1;entryY=0;entryDx=0;entryDy=0;" parent="1" source="fsgZ0Ki85QxKcjYv2eqa-67" target="fsgZ0Ki85QxKcjYv2eqa-75" edge="1">
          <mxGeometry relative="1" as="geometry">
            <mxPoint x="-1262" y="520" as="sourcePoint" />
            <mxPoint x="-1214" y="560" as="targetPoint" />
          </mxGeometry>
        </mxCell>
        <mxCell id="fsgZ0Ki85QxKcjYv2eqa-77" value="unit" style="ellipse;whiteSpace=wrap;html=1;align=center;" parent="1" vertex="1">
          <mxGeometry x="-1330" y="620" width="100" height="40" as="geometry" />
        </mxCell>
        <mxCell id="fsgZ0Ki85QxKcjYv2eqa-78" value="" style="endArrow=none;html=1;rounded=0;exitX=0.75;exitY=1;exitDx=0;exitDy=0;" parent="1" source="fsgZ0Ki85QxKcjYv2eqa-67" target="fsgZ0Ki85QxKcjYv2eqa-77" edge="1">
          <mxGeometry relative="1" as="geometry">
            <mxPoint x="-1210" y="510" as="sourcePoint" />
            <mxPoint x="-1234" y="370" as="targetPoint" />
          </mxGeometry>
        </mxCell>
        <mxCell id="fsgZ0Ki85QxKcjYv2eqa-79" value="expiration_date" style="ellipse;whiteSpace=wrap;html=1;align=center;" parent="1" vertex="1">
          <mxGeometry x="-1550" y="400" width="100" height="40" as="geometry" />
        </mxCell>
        <mxCell id="fsgZ0Ki85QxKcjYv2eqa-80" value="" style="endArrow=none;html=1;rounded=0;exitX=0;exitY=0;exitDx=0;exitDy=0;" parent="1" source="fsgZ0Ki85QxKcjYv2eqa-67" target="fsgZ0Ki85QxKcjYv2eqa-79" edge="1">
          <mxGeometry relative="1" as="geometry">
            <mxPoint x="-1220" y="480" as="sourcePoint" />
            <mxPoint x="-1149" y="330" as="targetPoint" />
          </mxGeometry>
        </mxCell>
        <mxCell id="fsgZ0Ki85QxKcjYv2eqa-81" value="created_at" style="ellipse;whiteSpace=wrap;html=1;align=center;" parent="1" vertex="1">
          <mxGeometry x="-1460" y="360" width="100" height="40" as="geometry" />
        </mxCell>
        <mxCell id="fsgZ0Ki85QxKcjYv2eqa-82" value="" style="endArrow=none;html=1;rounded=0;exitX=0.25;exitY=0;exitDx=0;exitDy=0;" parent="1" source="fsgZ0Ki85QxKcjYv2eqa-67" target="fsgZ0Ki85QxKcjYv2eqa-81" edge="1">
          <mxGeometry relative="1" as="geometry">
            <mxPoint x="-1190" y="430" as="sourcePoint" />
            <mxPoint x="-1119" y="280" as="targetPoint" />
          </mxGeometry>
        </mxCell>
        <mxCell id="fsgZ0Ki85QxKcjYv2eqa-83" value="updated_at" style="ellipse;whiteSpace=wrap;html=1;align=center;" parent="1" vertex="1">
          <mxGeometry x="-1350" y="352.5" width="100" height="40" as="geometry" />
        </mxCell>
        <mxCell id="fsgZ0Ki85QxKcjYv2eqa-84" value="" style="endArrow=none;html=1;rounded=0;exitX=0.5;exitY=0;exitDx=0;exitDy=0;" parent="1" source="fsgZ0Ki85QxKcjYv2eqa-67" target="fsgZ0Ki85QxKcjYv2eqa-83" edge="1">
          <mxGeometry relative="1" as="geometry">
            <mxPoint x="-1280" y="500" as="sourcePoint" />
            <mxPoint x="-1114" y="230" as="targetPoint" />
          </mxGeometry>
        </mxCell>
        <mxCell id="fsgZ0Ki85QxKcjYv2eqa-147" value="Includes" style="shape=rhombus;perimeter=rhombusPerimeter;whiteSpace=wrap;html=1;align=center;" parent="1" vertex="1">
          <mxGeometry x="-1140" y="580" width="120" height="60" as="geometry" />
        </mxCell>
        <mxCell id="fsgZ0Ki85QxKcjYv2eqa-148" value="" style="endArrow=none;html=1;rounded=0;exitX=1;exitY=1;exitDx=0;exitDy=0;entryX=0;entryY=0;entryDx=0;entryDy=0;" parent="1" source="fsgZ0Ki85QxKcjYv2eqa-147" target="fsgZ0Ki85QxKcjYv2eqa-132" edge="1">
          <mxGeometry relative="1" as="geometry">
            <mxPoint x="-760" y="590" as="sourcePoint" />
            <mxPoint x="-760" y="770" as="targetPoint" />
          </mxGeometry>
        </mxCell>
        <mxCell id="fsgZ0Ki85QxKcjYv2eqa-149" value="" style="endArrow=none;html=1;rounded=0;exitX=1;exitY=0.5;exitDx=0;exitDy=0;entryX=0;entryY=0;entryDx=0;entryDy=0;" parent="1" source="fsgZ0Ki85QxKcjYv2eqa-67" target="fsgZ0Ki85QxKcjYv2eqa-147" edge="1">
          <mxGeometry relative="1" as="geometry">
            <mxPoint x="-1280" y="505" as="sourcePoint" />
            <mxPoint x="-1060" y="660" as="targetPoint" />
          </mxGeometry>
        </mxCell>
        <mxCell id="fsgZ0Ki85QxKcjYv2eqa-157" value="Dynamic_Business_Info" style="rounded=1;arcSize=10;whiteSpace=wrap;html=1;align=center;" parent="1" vertex="1">
          <mxGeometry x="-195" y="905" width="150" height="50" as="geometry" />
        </mxCell>
        <mxCell id="fsgZ0Ki85QxKcjYv2eqa-158" value="&lt;u&gt;attr_id&lt;/u&gt;" style="ellipse;whiteSpace=wrap;html=1;align=center;" parent="1" vertex="1">
          <mxGeometry x="-170" y="820" width="100" height="40" as="geometry" />
        </mxCell>
        <mxCell id="fsgZ0Ki85QxKcjYv2eqa-159" value="" style="endArrow=none;html=1;rounded=0;entryX=0.5;entryY=1;entryDx=0;entryDy=0;exitX=0.5;exitY=0;exitDx=0;exitDy=0;" parent="1" source="fsgZ0Ki85QxKcjYv2eqa-157" target="fsgZ0Ki85QxKcjYv2eqa-158" edge="1">
          <mxGeometry relative="1" as="geometry">
            <mxPoint x="-170" y="925" as="sourcePoint" />
            <mxPoint x="80" y="872" as="targetPoint" />
          </mxGeometry>
        </mxCell>
        <mxCell id="fsgZ0Ki85QxKcjYv2eqa-160" value="attry_value" style="ellipse;whiteSpace=wrap;html=1;align=center;" parent="1" vertex="1">
          <mxGeometry x="-10" y="910" width="100" height="40" as="geometry" />
        </mxCell>
        <mxCell id="fsgZ0Ki85QxKcjYv2eqa-161" value="" style="endArrow=none;html=1;rounded=0;entryX=0;entryY=0.5;entryDx=0;entryDy=0;exitX=1;exitY=0.5;exitDx=0;exitDy=0;" parent="1" source="fsgZ0Ki85QxKcjYv2eqa-157" target="fsgZ0Ki85QxKcjYv2eqa-160" edge="1">
          <mxGeometry relative="1" as="geometry">
            <mxPoint x="-140" y="905" as="sourcePoint" />
            <mxPoint x="-144" y="805" as="targetPoint" />
          </mxGeometry>
        </mxCell>
        <mxCell id="fsgZ0Ki85QxKcjYv2eqa-162" value="attr_key" style="ellipse;whiteSpace=wrap;html=1;align=center;" parent="1" vertex="1">
          <mxGeometry x="-170" y="1000" width="100" height="40" as="geometry" />
        </mxCell>
        <mxCell id="fsgZ0Ki85QxKcjYv2eqa-163" value="" style="endArrow=none;html=1;rounded=0;exitX=0.5;exitY=1;exitDx=0;exitDy=0;entryX=0.5;entryY=0;entryDx=0;entryDy=0;" parent="1" source="fsgZ0Ki85QxKcjYv2eqa-157" target="fsgZ0Ki85QxKcjYv2eqa-162" edge="1">
          <mxGeometry relative="1" as="geometry">
            <mxPoint x="-120" y="945" as="sourcePoint" />
            <mxPoint x="-114" y="985" as="targetPoint" />
          </mxGeometry>
        </mxCell>
        <mxCell id="fsgZ0Ki85QxKcjYv2eqa-165" value="Has_Dynamic_Info" style="shape=rhombus;perimeter=rhombusPerimeter;whiteSpace=wrap;html=1;align=center;" parent="1" vertex="1">
          <mxGeometry x="-500" y="610" width="120" height="60" as="geometry" />
        </mxCell>
        <mxCell id="fsgZ0Ki85QxKcjYv2eqa-166" value="" style="endArrow=none;html=1;rounded=0;exitX=0.25;exitY=1;exitDx=0;exitDy=0;entryX=0.684;entryY=0.175;entryDx=0;entryDy=0;entryPerimeter=0;" parent="1" source="fsgZ0Ki85QxKcjYv2eqa-21" target="fsgZ0Ki85QxKcjYv2eqa-165" edge="1">
          <mxGeometry relative="1" as="geometry">
            <mxPoint x="-160" y="370" as="sourcePoint" />
            <mxPoint x="-400" y="445" as="targetPoint" />
          </mxGeometry>
        </mxCell>
        <mxCell id="fsgZ0Ki85QxKcjYv2eqa-167" value="" style="endArrow=none;html=1;rounded=0;exitX=0.085;exitY=-0.02;exitDx=0;exitDy=0;exitPerimeter=0;" parent="1" source="fsgZ0Ki85QxKcjYv2eqa-157" target="fsgZ0Ki85QxKcjYv2eqa-165" edge="1">
          <mxGeometry relative="1" as="geometry">
            <mxPoint x="-110" y="915" as="sourcePoint" />
            <mxPoint x="-110" y="870" as="targetPoint" />
          </mxGeometry>
        </mxCell>
        <mxCell id="0hic0GqCuWMndHrTwoRT-1" value="half_made?" style="ellipse;whiteSpace=wrap;html=1;align=center;" parent="1" vertex="1">
          <mxGeometry x="-580" y="290" width="100" height="40" as="geometry" />
        </mxCell>
        <mxCell id="0hic0GqCuWMndHrTwoRT-2" value="" style="endArrow=none;html=1;rounded=0;exitX=1;exitY=0.5;exitDx=0;exitDy=0;" parent="1" source="fsgZ0Ki85QxKcjYv2eqa-89" target="0hic0GqCuWMndHrTwoRT-1" edge="1">
          <mxGeometry relative="1" as="geometry">
            <mxPoint x="-710" y="330" as="sourcePoint" />
            <mxPoint x="-784" y="219.5" as="targetPoint" />
          </mxGeometry>
        </mxCell>
      </root>
    </mxGraphModel>
  </diagram>
</mxfile>
